<svg width="500" xmlns="http://www.w3.org/2000/svg" height="500" id="screenshot-c471c1c4-6722-807e-8006-84a4be560128" viewBox="0 0 500 500" xmlns:xlink="http://www.w3.org/1999/xlink" fill="none" version="1.1"><g id="shape-c471c1c4-6722-807e-8006-84a4be560128"><defs><clipPath id="frame-clip-c471c1c4-6722-807e-8006-84a4be560128-render-1" class="frame-clip frame-clip-def"><rect rx="0" ry="0" x="0" y="0" width="500" height="500" transform="matrix(1.000000, 0.000000, 0.000000, 1.000000, 0.000000, 0.000000)"/></clipPath></defs><g class="frame-container-wrapper"><g class="frame-container-blur"><g class="frame-container-shadows"><g clip-path="url(#frame-clip-c471c1c4-6722-807e-8006-84a4be560128-render-1)" fill="none"><g class="fills" id="fills-c471c1c4-6722-807e-8006-84a4be560128"><rect rx="0" ry="0" x="0" y="0" width="500" height="500" transform="matrix(1.000000, 0.000000, 0.000000, 1.000000, 0.000000, 0.000000)" class="frame-background"/></g><g class="frame-children"><g id="shape-c471c1c4-6722-807e-8006-84a4f0c4fc92"><g class="frame-container-wrapper"><g class="frame-container-blur"><defs><filter id="filter-shadow-render-2" x="-0.05856832971800422" y="-0.056962025316455694" width="1.1431670281995658" height="1.139240506329114" filterUnits="objectBoundingBox" color-interpolation-filters="sRGB"><feFlood flood-opacity="0" result="BackgroundImageFix"/><feColorMatrix in="SourceAlpha" type="matrix" values="0 0 0 0 0 0 0 0 0 0 0 0 0 0 0 0 0 0 127 0"/><feOffset dx="4" dy="4"/><feGaussianBlur stdDeviation="2"/><feColorMatrix type="matrix" values="0 0 0 0 0 0 0 0 0 0 0 0 0 0 0 0 0 0 0.2 0"/><feBlend mode="normal" in2="BackgroundImageFix" result="filter_c471c1c4-6722-807e-8006-84a540050247"/><feBlend mode="normal" in="SourceGraphic" in2="filter_c471c1c4-6722-807e-8006-84a540050247" result="shape"/></filter></defs><g class="frame-container-shadows" filter="url(#filter-shadow-render-2)"><g fill="none"><g class="fills" id="fills-c471c1c4-6722-807e-8006-84a4f0c4fc92"><rect rx="0" ry="0" x="20" y="12" width="461.0000000000009" height="474" transform="matrix(1.000000, 0.000000, 0.000000, 1.000000, 0.000000, 0.000000)" class="frame-background"/></g><g class="frame-children"><g id="shape-c471c1c4-6722-807e-8006-84a4f0c56175"><defs><linearGradient id="fill-color-gradient-render-3-0" x1="0" y1="0.5000000000000006" x2="1" y2="0.49999999999999944" gradientTransform=""><stop offset="0.21" stop-color="#f97316" stop-opacity="1"/><stop offset="1" stop-color="#f43f5e" stop-opacity="1"/></linearGradient><pattern patternUnits="userSpaceOnUse" x="118.46109907843038" y="118.61183378664646" width="263.3646581681578" height="263.72854263464524" patternTransform="matrix(1.000000, 0.000000, 0.000000, 1.000000, 0.000000, 0.000000)" id="fill-0-render-3"><g><rect width="263.3646581681578" height="263.72854263464524" style="fill: url(&quot;#fill-color-gradient-render-3-0&quot;);"/></g></pattern></defs><g class="fills" id="fills-c471c1c4-6722-807e-8006-84a4f0c56175"><path d="M272.531982421875,121.13671875C274.752197265625,121.5224609375,276.685791015625,121.720703125,278.9248046875,121.61474609375C278.9248046875,122.09521484375,278.9248046875,122.57568359375,278.9248046875,123.07080078125C279.7392578125,123.14599609375,280.553466796875,123.220703125,281.392333984375,123.29931640625C300.794189453125,125.7509765625,321.440673828125,137.927734375,335.759033203125,150.7470703125C336.294921875,151.224609375,336.294921875,151.224609375,336.842041015625,151.71142578125C362.50634765625,174.6357421875,379.25927734375,204.8642578125,381.6630859375,239.6015625C382.052001953125,249.88232421875,381.8095703125,260.02734375,380.2060546875,270.19091796875C380.089111328125,271.06640625,379.97265625,271.9423828125,379.8525390625,272.84521484375C377.675537109375,286.88916015625,372.566162109375,300.787109375,365.63330078125,313.162109375C364.9638671875,314.427734375,364.9638671875,314.427734375,364.28125,315.7197265625C358.982666015625,325.47021484375,352.1787109375,334.29248046875,344.502197265625,342.2939453125C343.678466796875,343.17431640625,343.678466796875,343.17431640625,342.83740234375,344.072265625C318.955810546875,368.875,286.021728515625,381.328125,251.976318359375,382.326171875C219.591552734375,382.822265625,189.377685546875,370.4794921875,164.5283203125,350.3056640625C164.1357421875,349.98876953125,163.74267578125,349.6728515625,163.338623046875,349.34716796875C161.311279296875,347.69189453125,159.468017578125,346.0302734375,157.7880859375,344.02392578125C155.737060546875,341.6123046875,153.616943359375,339.28515625,151.4580078125,336.96875C129.794677734375,313.0673828125,117.7919921875,279.46337890625,118.489990234375,247.24560546875C120.412109375,210.658203125,134.298095703125,178.39697265625,160.884765625,152.93212890625C175.430908203125,140.05419921875,198.905517578125,123.07080078125,219.17626953125,123.07080078125C219.41650390625,122.59033203125,219.656982421875,122.10986328125,219.90478515625,121.61474609375C236.257568359375,117.3291015625,256.050048828125,118.05419921875,272.531982421875,121.13671875Z" fill="url(#fill-0-render-3)"/></g></g><g id="shape-c471c1c4-6722-807e-8006-84a4f0c56176"><defs><linearGradient id="fill-color-gradient-render-4-0" x1="0" y1="0.5000000000000006" x2="1" y2="0.49999999999999944" gradientTransform=""><stop offset="0.21" stop-color="#f97316" stop-opacity="1"/><stop offset="1" stop-color="#f43f5e" stop-opacity="1"/></linearGradient><pattern patternUnits="userSpaceOnUse" x="20" y="176.60343253652172" width="79.9907404602236" height="38.667633873260456" patternTransform="matrix(1.000000, 0.000000, 0.000000, 1.000000, 0.000000, 0.000000)" id="fill-0-render-4"><g><rect width="79.9907404602236" height="38.667633873260456" style="fill: url(&quot;#fill-color-gradient-render-4-0&quot;);"/></g></pattern></defs><g class="fills" id="fills-c471c1c4-6722-807e-8006-84a4f0c56176"><path d="M42.112548828125,178.4736328125C42.924560546875,178.701171875,42.924560546875,178.701171875,43.752685546875,178.93359375C45.51904296875,179.4306640625,47.283203125,179.93505859375,49.046875,180.43994140625C50.28466796875,180.791015625,51.52294921875,181.14306640625,52.760986328125,181.494140625C55.345947265625,182.2275390625,57.929443359375,182.966796875,60.5126953125,183.70703125C63.81494140625,184.6533203125,67.12109375,185.58935546875,70.427734375,186.52099609375C72.9814453125,187.24169921875,75.533203125,187.9697265625,78.084228515625,188.70068359375C79.302490234375,189.048828125,80.52099609375,189.3935546875,81.74072265625,189.736328125C83.445556640625,190.216796875,85.148193359375,190.70703125,86.85009765625,191.19921875C87.3486328125,191.337890625,87.847412109375,191.47607421875,88.36083984375,191.61865234375C92.343017578125,192.78857421875,96.364990234375,194.521484375,98.494873046875,198.27001953125C99.911376953125,201.0712890625,100.358154296875,203.74853515625,99.678955078125,206.82763671875C98.097412109375,210.4423828125,96.143310546875,213.32177734375,92.392578125,214.83935546875C83.724609375,216.54248046875,74.7568359375,212.82177734375,66.468994140625,210.40380859375C65.48828125,210.119140625,64.507080078125,209.8359375,63.526611328125,209.55224609375C61.49072265625,208.96240234375,59.455322265625,208.37060546875,57.42041015625,207.7763671875C54.833740234375,207.021484375,52.245361328125,206.27294921875,49.656005859375,205.5263671875C47.636962890625,204.943359375,45.61962890625,204.35693359375,43.60205078125,203.76953125C42.19091796875,203.359375,40.779052734375,202.953125,39.3671875,202.544921875C24.554443359375,198.20556640625,24.554443359375,198.20556640625,20.985595703125,193.7177734375C19.6298828125,189.6513671875,19.573486328125,185.6689453125,21.44140625,181.7919921875C27.7294921875,174.84375,33.9736328125,176.12451171875,42.112548828125,178.4736328125Z" fill="url(#fill-0-render-4)"/></g></g><g id="shape-c471c1c4-6722-807e-8006-84a4f0c56177"><defs><linearGradient id="fill-color-gradient-render-5-0" x1="0" y1="0.5000000000000006" x2="1" y2="0.49999999999999944" gradientTransform=""><stop offset="0.21" stop-color="#f97316" stop-opacity="1"/><stop offset="1" stop-color="#f43f5e" stop-opacity="1"/></linearGradient><pattern patternUnits="userSpaceOnUse" x="401.74929650567356" y="175.97696297019047" width="79.25070349432735" height="38.90162304169826" patternTransform="matrix(1.000000, 0.000000, 0.000000, 1.000000, 0.000000, 0.000000)" id="fill-0-render-5"><g><rect width="79.25070349432735" height="38.90162304169826" style="fill: url(&quot;#fill-color-gradient-render-5-0&quot;);"/></g></pattern></defs><g class="fills" id="fills-c471c1c4-6722-807e-8006-84a4f0c56177"><path d="M475.20263671875,177.466796875C477.8203125,179.77197265625,480.4970703125,182.20947265625,480.957763671875,185.8056640625C481.111328125,189.66015625,480.9736328125,192.5146484375,478.34521484375,195.48828125C473.2822265625,200.193359375,464.81787109375,201.21484375,458.30712890625,202.9130859375C455.898681640625,203.5478515625,453.490966796875,204.1865234375,451.08349609375,204.82421875C450.468994140625,204.9873046875,449.854248046875,205.1494140625,449.220703125,205.3173828125C444.882568359375,206.46923828125,440.56298828125,207.6796875,436.248291015625,208.9208984375C435.0625,209.2607421875,433.876708984375,209.59912109375,432.6904296875,209.93798828125C430.98779296875,210.4248046875,429.287109375,210.9140625,427.588623046875,211.4130859375C412.86865234375,215.7412109375,412.86865234375,215.7412109375,407.2568359375,212.9267578125C404.200927734375,210.60546875,402.355224609375,208.8349609375,401.7890625,204.91796875C401.649658203125,201.6044921875,401.818603515625,199.337890625,403.249267578125,196.3125C406.49462890625,192.8125,409.87841796875,191.173828125,414.44873046875,189.955078125C414.939208984375,189.8212890625,415.428955078125,189.68896484375,415.933837890625,189.5517578125C417.53955078125,189.11767578125,419.14794921875,188.69482421875,420.756591796875,188.2724609375C421.882080078125,187.970703125,423.0068359375,187.66796875,424.132080078125,187.36474609375C427.085693359375,186.57080078125,430.04150390625,185.78564453125,432.998291015625,185.0029296875C435.99755859375,184.20751953125,438.994384765625,183.40380859375,441.990966796875,182.599609375C445.364501953125,181.69580078125,448.73828125,180.79150390625,452.1142578125,179.89453125C452.88720703125,179.689453125,452.88720703125,179.689453125,453.676513671875,179.4794921875C455.06298828125,179.111328125,456.449462890625,178.7431640625,457.83642578125,178.3759765625C459.59912109375,177.8994140625,461.3564453125,177.404296875,463.110107421875,176.89501953125C467.382568359375,175.69921875,471.1875,175.4609375,475.20263671875,177.466796875Z" fill="url(#fill-0-render-5)"/></g></g><g id="shape-c471c1c4-6722-807e-8006-84a4f0c56178"><defs><linearGradient id="fill-color-gradient-render-6-0" x1="0" y1="0.5000000000000006" x2="1" y2="0.49999999999999944" gradientTransform=""><stop offset="0.21" stop-color="#f97316" stop-opacity="1"/><stop offset="1" stop-color="#f43f5e" stop-opacity="1"/></linearGradient><pattern patternUnits="userSpaceOnUse" x="24.322235352187818" y="295.8628384212989" width="76.44976214946655" height="42.977229668281325" patternTransform="matrix(1.000000, 0.000000, 0.000000, 1.000000, 0.000000, 0.000000)" id="fill-0-render-6"><g><rect width="76.44976214946655" height="42.977229668281325" style="fill: url(&quot;#fill-color-gradient-render-6-0&quot;);"/></g></pattern></defs><g class="fills" id="fills-c471c1c4-6722-807e-8006-84a4f0c56178"><path d="M95.899169921875,297.18408203125C98.917724609375,299.8564453125,100.2080078125,303.02392578125,100.77197265625,306.97021484375C100.319091796875,310.138671875,99.54833984375,312.849609375,97.4931640625,315.3466796875C93.990966796875,317.50732421875,90.46337890625,319.14599609375,86.6318359375,320.62744140625C86.0849609375,320.841796875,85.538330078125,321.056640625,84.975341796875,321.27783203125C83.19873046875,321.9755859375,81.419921875,322.66650390625,79.6416015625,323.35791015625C78.407470703125,323.8408203125,77.173828125,324.32275390625,75.93994140625,324.80615234375C72.805419921875,326.033203125,69.667724609375,327.25390625,66.530029296875,328.47412109375C64.213134765625,329.3759765625,61.897216796875,330.28076171875,59.5810546875,331.185546875C57.498291015625,331.9990234375,55.41455078125,332.810546875,53.330322265625,333.62060546875C52.356689453125,333.99951171875,51.38330078125,334.37890625,50.409912109375,334.7578125C49.063720703125,335.2822265625,47.716064453125,335.80419921875,46.36865234375,336.3251953125C45.614013671875,336.6181640625,44.85888671875,336.9111328125,44.081298828125,337.21240234375C40.0078125,338.6875,36.240234375,339.138671875,31.91552734375,338.65234375C28.38818359375,336.955078125,26.302490234375,334.908203125,24.62890625,331.369140625C24.078125,327.6005859375,24.187744140625,324.43994140625,25.630615234375,320.900390625C31.41015625,315.123046875,41.007568359375,312.93115234375,48.537353515625,310.1572265625C49.833984375,309.67626953125,51.13037109375,309.1953125,52.426025390625,308.712890625C54.385986328125,307.984375,56.345458984375,307.25634765625,58.30615234375,306.529296875C64.291259765625,304.3095703125,70.2607421875,302.05029296875,76.22607421875,299.779296875C77.91552734375,299.13525390625,79.60546875,298.4921875,81.294921875,297.85009765625C81.983154296875,297.5869140625,82.671630859375,297.3251953125,83.380859375,297.05517578125C87.825927734375,295.39404296875,91.43359375,295.49755859375,95.899169921875,297.18408203125Z" fill="url(#fill-0-render-6)"/></g></g><g id="shape-c471c1c4-6722-807e-8006-84a4f0c56179"><defs><linearGradient id="fill-color-gradient-render-7-0" x1="0" y1="0.5000000000000001" x2="1" y2="0.4999999999999999" gradientTransform=""><stop offset="0.13" stop-color="#f97316" stop-opacity="1"/><stop offset="1" stop-color="#f43f5e" stop-opacity="1"/></linearGradient><pattern patternUnits="userSpaceOnUse" x="100.40767687001335" y="58.669229452071704" width="56.67242397737937" height="68.48559682109772" patternTransform="matrix(1.000000, 0.000000, 0.000000, 1.000000, 0.000000, 0.000000)" id="fill-0-render-7"><g><rect width="56.67242397737937" height="68.48559682109772" style="fill: url(&quot;#fill-color-gradient-render-7-0&quot;);"/></g></pattern></defs><g class="fills" id="fills-c471c1c4-6722-807e-8006-84a4f0c56179"><path d="M112.657958984375,58.75146484375C113.263916015625,58.7236328125,113.86962890625,58.697265625,114.493896484375,58.66943359375C118.24462890625,59.267578125,120.6025390625,61.43017578125,122.79052734375,64.3994140625C123.473388671875,65.39404296875,124.148681640625,66.3955078125,124.81689453125,67.400390625C125.58447265625,68.51953125,126.352783203125,69.6376953125,127.122802734375,70.7548828125C127.520263671875,71.33447265625,127.917724609375,71.91455078125,128.327392578125,72.51171875C130.34814453125,75.4169921875,132.454345703125,78.2587890625,134.562744140625,81.10205078125C134.986328125,81.6748046875,135.409423828125,82.24755859375,135.845458984375,82.837890625C138.034912109375,85.7998046875,140.23388671875,88.7548828125,142.4384765625,91.70556640625C146.334228515625,96.9306640625,150.21875,102.16357421875,153.826171875,107.59375C154.333984375,108.35693359375,154.842529296875,109.11865234375,155.365966796875,109.90478515625C157.1376953125,113.3671875,157.564208984375,116.09521484375,156.512939453125,119.83935546875C154.7314453125,122.900390625,153.174072265625,125.115234375,149.955322265625,126.71240234375C146.00732421875,127.40625,142.6669921875,127.45068359375,139.05126953125,125.6171875C136.18212890625,123.2587890625,134.234130859375,120.583984375,132.103515625,117.56298828125C131.201416015625,116.3115234375,130.299072265625,115.0595703125,129.39697265625,113.8076171875C128.939453125,113.1689453125,128.482421875,112.529296875,128.01123046875,111.8701171875C126.282958984375,109.46728515625,124.525146484375,107.087890625,122.762451171875,104.70947265625C101.017578125,75.373046875,101.017578125,75.373046875,100.40771484375,69.17626953125C100.969970703125,65.82666015625,102.2138671875,63.4404296875,104.779541015625,61.20947265625C107.48828125,59.34912109375,109.437744140625,58.845703125,112.657958984375,58.75146484375Z" fill="url(#fill-0-render-7)"/></g></g><g id="shape-c471c1c4-6722-807e-8006-84a4f0c5617a"><defs><linearGradient id="fill-color-gradient-render-8-0" x1="0" y1="0.5000000000000001" x2="1" y2="0.4999999999999999" gradientTransform=""><stop offset="0.13" stop-color="#f97316" stop-opacity="1"/><stop offset="1" stop-color="#f43f5e" stop-opacity="1"/></linearGradient><pattern patternUnits="userSpaceOnUse" x="400.41051177248755" y="295.4957645123377" width="75.98829596301948" height="43.363171477501965" patternTransform="matrix(1.000000, 0.000000, 0.000000, 1.000000, 0.000000, 0.000000)" id="fill-0-render-8"><g><rect width="75.98829596301948" height="43.363171477501965" style="fill: url(&quot;#fill-color-gradient-render-8-0&quot;);"/></g></pattern></defs><g class="fills" id="fills-c471c1c4-6722-807e-8006-84a4f0c5617a"><path d="M416.4169921875,296.224609375C418.73095703125,297.05224609375,421.00830078125,297.947265625,423.286865234375,298.86865234375C424.646728515625,299.40283203125,426.00732421875,299.93798828125,427.367919921875,300.47119140625C428.37548828125,300.86669921875,429.3828125,301.263671875,430.3896484375,301.662109375C435.05029296875,303.50146484375,439.73876953125,305.26123046875,444.431640625,307.01611328125C446.763427734375,307.892578125,449.094482421875,308.7705078125,451.42578125,309.64794921875C452.97216796875,310.22802734375,454.518798828125,310.8056640625,456.067138671875,311.3818359375C458.265625,312.2001953125,460.459716796875,313.02880859375,462.6533203125,313.861328125C463.312744140625,314.103515625,463.97265625,314.34619140625,464.652099609375,314.59619140625C469.42236328125,316.42333984375,472.917236328125,318.29296875,475.6123046875,322.8115234375C476.567138671875,326.18017578125,476.73388671875,328.7470703125,475.65771484375,332.09814453125C473.7685546875,335.150390625,471.67626953125,337.2255859375,468.371337890625,338.65234375C463.622314453125,339.357421875,459.636474609375,338.16845703125,455.273193359375,336.41064453125C454.359130859375,336.05810546875,454.359130859375,336.05810546875,453.426513671875,335.6982421875C451.451171875,334.93310546875,449.48291015625,334.15380859375,447.51416015625,333.3720703125C446.147705078125,332.8388671875,444.78076171875,332.306640625,443.413330078125,331.775390625C440.658935546875,330.70361328125,437.906494140625,329.6259765625,435.156005859375,328.54443359375C431.564208984375,327.13427734375,427.9619140625,325.751953125,424.354248046875,324.3818359375C422.823486328125,323.798828125,421.292724609375,323.21533203125,419.761962890625,322.63134765625C418.813232421875,322.26953125,417.864013671875,321.91015625,416.91455078125,321.55029296875C403.543212890625,316.47900390625,403.543212890625,316.47900390625,401.74658203125,312.61572265625C400.048583984375,308.6806640625,399.98193359375,305.40625,401.47314453125,301.32666015625C405.162109375,295.73193359375,410.1220703125,294.486328125,416.4169921875,296.224609375Z" fill="url(#fill-0-render-8)"/></g></g><g id="shape-c471c1c4-6722-807e-8006-84a4f0c5617b"><defs><linearGradient id="fill-color-gradient-render-9-0" x1="0" y1="0.5000000000000001" x2="1" y2="0.4999999999999999" gradientTransform=""><stop offset="0.13" stop-color="#f97316" stop-opacity="1"/><stop offset="1" stop-color="#f43f5e" stop-opacity="1"/></linearGradient><pattern patternUnits="userSpaceOnUse" x="239.20743345160554" y="12" width="23.142409673936527" height="81.43777475260322" patternTransform="matrix(1.000000, 0.000000, 0.000000, 1.000000, 0.000000, 0.000000)" id="fill-0-render-9"><g><rect width="23.142409673936527" height="81.43777475260322" style="fill: url(&quot;#fill-color-gradient-render-9-0&quot;);"/></g></pattern></defs><g class="fills" id="fills-c471c1c4-6722-807e-8006-84a4f0c5617b"><path d="M256.610107421875,13.50537109375C260.15869140625,16.798828125,261.563720703125,19.66015625,261.87646484375,24.4326171875C261.92431640625,26.02197265625,261.956298828125,27.61328125,261.975341796875,29.20361328125C261.995849609375,30.06396484375,262.0166015625,30.923828125,262.0380859375,31.81005859375C262.097412109375,34.5546875,262.134765625,37.29833984375,262.166015625,40.04296875C262.1845703125,41.36767578125,262.1845703125,41.36767578125,262.203369140625,42.71826171875C262.273193359375,48.009765625,262.301513671875,53.30029296875,262.301025390625,58.591796875C262.302734375,61.2998046875,262.31640625,64.0078125,262.32958984375,66.71484375C262.33203125,68.462890625,262.333251953125,70.2099609375,262.333740234375,71.9580078125C262.33935546875,72.75390625,262.344482421875,73.5517578125,262.349853515625,74.3720703125C262.31640625,85.6357421875,262.31640625,85.6357421875,258.97802734375,89.88671875C256.258056640625,92.5419921875,254.35302734375,93.4208984375,250.55322265625,93.4375C247.502197265625,93.3662109375,245.60888671875,93.060546875,243.22119140625,91.02490234375C239.82275390625,87.15625,239.46533203125,84.78466796875,239.449462890625,79.7470703125C239.4443359375,79.107421875,239.439697265625,78.4677734375,239.434814453125,77.80859375C239.420166015625,75.685546875,239.411865234375,73.5634765625,239.404541015625,71.4404296875C239.400146484375,70.353515625,239.400146484375,70.353515625,239.3955078125,69.2451171875C239.380615234375,65.41064453125,239.369873046875,61.57568359375,239.363037109375,57.7412109375C239.35498046875,53.77978515625,239.330078125,49.81884765625,239.301025390625,45.85791015625C239.28173828125,42.8125,239.27587890625,39.767578125,239.27294921875,36.7216796875C239.26953125,35.26220703125,239.260986328125,33.80224609375,239.247802734375,32.341796875C239.230224609375,30.296875,239.23046875,28.2529296875,239.23583984375,26.20703125C239.226318359375,25.60546875,239.21728515625,25.00390625,239.207275390625,24.3837890625C239.248046875,19.85546875,240.65673828125,17.41015625,243.63134765625,13.9599609375C247.1025390625,11.09423828125,252.823974609375,11.7529296875,256.610107421875,13.50537109375Z" fill="url(#fill-0-render-9)"/></g></g><g id="shape-c471c1c4-6722-807e-8006-84a4f0c5617c"><defs><linearGradient id="fill-color-gradient-render-10-0" x1="0" y1="0.5000000000000001" x2="1" y2="0.4999999999999999" gradientTransform=""><stop offset="0.13" stop-color="#f97316" stop-opacity="1"/><stop offset="1" stop-color="#f43f5e" stop-opacity="1"/></linearGradient><pattern patternUnits="userSpaceOnUse" x="343.7738588061575" y="58.76830522489854" width="56.7366774669772" height="68.16469801597486" patternTransform="matrix(1.000000, 0.000000, 0.000000, 1.000000, 0.000000, 0.000000)" id="fill-0-render-10"><g><rect width="56.7366774669772" height="68.16469801597486" style="fill: url(&quot;#fill-color-gradient-render-10-0&quot;);"/></g></pattern></defs><g class="fills" id="fills-c471c1c4-6722-807e-8006-84a4f0c5617c"><path d="M393.321533203125,58.9794921875C396.692138671875,60.27001953125,398.21044921875,62.37646484375,399.879150390625,65.5341796875C401.133056640625,69.7294921875,400.453369140625,72.6005859375,398.421875,76.458984375C397.21533203125,78.4033203125,395.89599609375,80.25244140625,394.551025390625,82.103515625C394.17626953125,82.626953125,393.80078125,83.15087890625,393.41455078125,83.6904296875C389.900634765625,88.58203125,386.321044921875,93.4267578125,382.725341796875,98.25830078125C382.105224609375,99.0927734375,382.105224609375,99.0927734375,381.472900390625,99.94384765625C381.104736328125,100.4375,380.73681640625,100.9306640625,380.357666015625,101.439453125C379.43359375,102.6728515625,379.43359375,102.6728515625,378.748779296875,104.134765625C378.267822265625,104.134765625,377.786865234375,104.134765625,377.29150390625,104.134765625C377.089111328125,104.55859375,376.88671875,104.982421875,376.678466796875,105.4189453125C375.280517578125,108.11669921875,373.487060546875,110.53369140625,371.735595703125,113.0107421875C371.345458984375,113.5634765625,370.955078125,114.115234375,370.55322265625,114.6845703125C363.148681640625,125.04150390625,363.148681640625,125.04150390625,359.8037109375,126.71240234375C354.606689453125,127.23828125,350.875732421875,127.02587890625,346.688232421875,123.79931640625C344.684814453125,121.26220703125,343.962890625,119.0048828125,343.773681640625,115.7880859375C344.39599609375,110.5458984375,346.88818359375,107.34375,350.073486328125,103.23681640625C352.0537109375,100.65478515625,353.9619140625,98.0185546875,355.88720703125,95.3955078125C356.7763671875,94.1904296875,357.6650390625,92.986328125,358.5546875,91.7822265625C360.324462890625,89.38427734375,362.091552734375,86.982421875,363.854248046875,84.578125C365.96044921875,81.7080078125,368.074951171875,78.8427734375,370.196044921875,75.9833984375C371.052490234375,74.8271484375,371.906982421875,73.669921875,372.759765625,72.51171875C374.020263671875,70.80224609375,375.290283203125,69.1005859375,376.56298828125,67.400390625C376.938720703125,66.8876953125,377.314208984375,66.37451171875,377.701171875,65.84716796875C382.09912109375,60.0205078125,386.02294921875,58.07568359375,393.321533203125,58.9794921875Z" fill="url(#fill-0-render-10)"/></g></g><g id="shape-c471c1c4-6722-807e-8006-84a4f0c5617d"><defs><linearGradient id="fill-color-gradient-render-11-0" x1="0" y1="0.5000000000000006" x2="1" y2="0.49999999999999944" gradientTransform=""><stop offset="0.21" stop-color="#f97316" stop-opacity="1"/><stop offset="1" stop-color="#f43f5e" stop-opacity="1"/></linearGradient><pattern patternUnits="userSpaceOnUse" x="337.1881327956935" y="378.6468868185457" width="53.85363877324835" height="70.20078413653573" patternTransform="matrix(1.000000, 0.000000, 0.000000, 1.000000, 0.000000, 0.000000)" id="fill-0-render-11"><g><rect width="53.85363877324835" height="70.20078413653573" style="fill: url(&quot;#fill-color-gradient-render-11-0&quot;);"/></g></pattern></defs><g class="fills" id="fills-c471c1c4-6722-807e-8006-84a4f0c5617d"><path d="M353.246337890625,379.4384765625C357.0966796875,382.076171875,359.537841796875,385.23291015625,361.853271484375,389.224609375C362.48486328125,390.27294921875,363.117431640625,391.3193359375,363.751708984375,392.3662109375C364.066650390625,392.888671875,364.3818359375,393.412109375,364.706298828125,393.9501953125C366.075439453125,396.181640625,367.53369140625,398.34765625,369.003173828125,400.51416015625C373.89501953125,407.7734375,378.583740234375,415.16552734375,383.278076171875,422.55419921875C384.377197265625,424.279296875,385.48388671875,425.99755859375,386.595458984375,427.71484375C387.12255859375,428.54052734375,387.649658203125,429.36669921875,388.175537109375,430.19287109375C388.602783203125,430.85693359375,389.030029296875,431.5205078125,389.470458984375,432.2041015625C390.774169921875,434.791015625,391.3466796875,437.12158203125,390.882080078125,440.005859375C389.307373046875,444.1953125,387.208984375,446.58447265625,383.12060546875,448.62841796875C379.649658203125,449.00927734375,376.7197265625,449.02734375,373.51171875,447.5810546875C369.025146484375,443.49560546875,365.858642578125,438.49169921875,362.667236328125,433.37353515625C361.104736328125,430.900390625,359.479736328125,428.47607421875,357.845703125,426.05029296875C353.856201171875,420.10595703125,350.0341796875,414.060546875,346.23828125,407.99072265625C345.318603515625,406.525390625,344.3896484375,405.06494140625,343.457763671875,403.6064453125C336.69140625,392.89697265625,336.69140625,392.89697265625,337.625732421875,387.67724609375C338.753173828125,383.7333984375,340.337890625,381.6298828125,343.91064453125,379.529296875C347.21728515625,378.55419921875,349.98046875,378.2041015625,353.246337890625,379.4384765625Z" fill="url(#fill-0-render-11)"/></g></g><g id="shape-c471c1c4-6722-807e-8006-84a4f0c5617e"><defs><linearGradient id="fill-color-gradient-render-12-0" x1="0" y1="0.5000000000000006" x2="1" y2="0.49999999999999944" gradientTransform=""><stop offset="0.21" stop-color="#f97316" stop-opacity="1"/><stop offset="1" stop-color="#f43f5e" stop-opacity="1"/></linearGradient><pattern patternUnits="userSpaceOnUse" x="108.97490422344436" y="378.74610185368147" width="54.05245836764152" height="70.07014100536344" patternTransform="matrix(1.000000, 0.000000, 0.000000, 1.000000, 0.000000, 0.000000)" id="fill-0-render-12"><g><rect width="54.05245836764152" height="70.07014100536344" style="fill: url(&quot;#fill-color-gradient-render-12-0&quot;);"/></g></pattern></defs><g class="fills" id="fills-c471c1c4-6722-807e-8006-84a4f0c5617e"><path d="M158.243408203125,380.712890625C160.956298828125,383.03662109375,162.02197265625,384.9052734375,163.025146484375,388.314453125C163.13818359375,395.1962890625,158.62841796875,401.0732421875,154.919189453125,406.56787109375C153.93408203125,408.05078125,152.949462890625,409.5341796875,151.964599609375,411.017578125C151.49169921875,411.72607421875,151.0185546875,412.4345703125,150.53076171875,413.16455078125C148.897705078125,415.62060546875,147.303955078125,418.099609375,145.719970703125,420.58837890625C142.6337890625,425.3974609375,139.484619140625,430.16259765625,136.289794921875,434.900390625C135.681396484375,435.8037109375,135.07470703125,436.7080078125,134.46923828125,437.61376953125C133.594970703125,438.921875,132.713623046875,440.2255859375,131.830078125,441.52734375C131.3212890625,442.2822265625,130.812255859375,443.03662109375,130.287841796875,443.81494140625C128.32763671875,446.361328125,126.766357421875,447.615234375,123.724365234375,448.62841796875C118.968505859375,449.1904296875,115.923828125,448.5693359375,112.06591796875,445.71484375C110.15576171875,443.423828125,109.232177734375,440.94677734375,108.97509765625,437.95361328125C109.6572265625,431.35302734375,114.8935546875,425.2724609375,118.550048828125,419.91748046875C121.1328125,416.12744140625,123.638427734375,412.28857421875,126.145263671875,408.44873046875C126.956298828125,407.2080078125,127.76806640625,405.966796875,128.580322265625,404.7265625C130.944091796875,401.1123046875,133.30029296875,397.49462890625,135.621337890625,393.853515625C136.157470703125,393.0146484375,136.157470703125,393.0146484375,136.70458984375,392.1591796875C137.342041015625,391.15966796875,137.97705078125,390.15771484375,138.60693359375,389.15283203125C140.970458984375,385.4482421875,143.537353515625,381.4931640625,147.268310546875,379.07421875C151.27294921875,378.330078125,154.635986328125,378.8427734375,158.243408203125,380.712890625Z" fill="url(#fill-0-render-12)"/></g></g><g id="shape-c471c1c4-6722-807e-8006-84a4f0c59eed"><defs><linearGradient id="fill-color-gradient-render-13-0" x1="0" y1="0.5000000000000006" x2="1" y2="0.49999999999999944" gradientTransform=""><stop offset="0.21" stop-color="#f97316" stop-opacity="1"/><stop offset="1" stop-color="#f43f5e" stop-opacity="1"/></linearGradient><pattern patternUnits="userSpaceOnUse" x="239.17860156236657" y="408.68282111228837" width="23.2084791442594" height="77.31717888771254" patternTransform="matrix(1.000000, 0.000000, 0.000000, 1.000000, 0.000000, 0.000000)" id="fill-0-render-13"><g><rect width="23.2084791442594" height="77.31717888771254" style="fill: url(&quot;#fill-color-gradient-render-13-0&quot;);"/></g></pattern></defs><g class="fills" id="fills-c471c1c4-6722-807e-8006-84a4f0c59eed"><path d="M257.7314453125,410.9296875C263.08984375,416.24609375,262.333251953125,425.56396484375,262.368408203125,432.56787109375C262.36572265625,433.513671875,262.362548828125,434.458984375,262.359619140625,435.43310546875C262.3603515625,436.4453125,262.362060546875,437.4580078125,262.364013671875,438.4697265625C262.365966796875,440.57470703125,262.36279296875,442.6787109375,262.35595703125,444.78271484375C262.347412109375,447.45703125,262.3525390625,450.1318359375,262.361328125,452.806640625C262.3662109375,454.890625,262.36474609375,456.97509765625,262.361083984375,459.0595703125C262.359619140625,460.51806640625,262.3642578125,461.9765625,262.368408203125,463.43505859375C262.293212890625,478.220703125,262.293212890625,478.220703125,258.52294921875,482.859375C255.857421875,485.26513671875,253.79150390625,485.6689453125,250.2802734375,486C247.10302734375,485.73095703125,244.90234375,484.95947265625,242.492919921875,482.859375C239.689208984375,479.39599609375,239.15576171875,476.64599609375,239.200927734375,472.31298828125C239.19580078125,471.70849609375,239.19091796875,471.103515625,239.185546875,470.48095703125C239.173095703125,468.4921875,239.180908203125,466.50390625,239.191162109375,464.5146484375C239.189208984375,463.12744140625,239.186279296875,461.7392578125,239.1826171875,460.3515625C239.177978515625,457.44775390625,239.184814453125,454.54345703125,239.1982421875,451.638671875C239.21484375,447.921875,239.20556640625,444.2041015625,239.18798828125,440.48681640625C239.177001953125,437.6220703125,239.1806640625,434.7578125,239.188232421875,431.89404296875C239.18994140625,430.5234375,239.187744140625,429.15283203125,239.180908203125,427.7822265625C239.173583984375,425.86474609375,239.18505859375,423.9482421875,239.200927734375,422.03076171875C239.195068359375,421.46728515625,239.189208984375,420.904296875,239.183349609375,420.32421875C239.2421875,416.5458984375,240.100341796875,414.39306640625,242.492919921875,411.484375C247.23193359375,408.0498046875,252.68505859375,407.666015625,257.7314453125,410.9296875Z" fill="url(#fill-0-render-13)"/></g></g><g id="shape-c471c1c4-6722-807e-8006-84a4f0c59eee"><defs><linearGradient id="fill-color-gradient-render-14-0" x1="0" y1="0.5000000000000001" x2="1" y2="0.4999999999999999" gradientTransform=""><stop offset="0.13" stop-color="#f97316" stop-opacity="1"/><stop offset="1" stop-color="#f43f5e" stop-opacity="1"/></linearGradient><pattern patternUnits="userSpaceOnUse" x="463.99966724766546" y="313.88986854587165" width="2.18592378984431" height="0.7283158167847432" patternTransform="matrix(1.000000, 0.000000, 0.000000, 1.000000, 0.000000, 0.000000)" id="fill-0-render-14"><g><rect width="2.18592378984431" height="0.7283158167847432" style="fill: url(&quot;#fill-color-gradient-render-14-0&quot;);"/></g></pattern></defs><g class="fills" id="fills-c471c1c4-6722-807e-8006-84a4f0c59eee"><path d="M463.99951171875,313.8896484375C466.185546875,314.6181640625,466.185546875,314.6181640625,466.185546875,314.6181640625Z" fill="url(#fill-0-render-14)"/></g></g><g id="shape-c471c1c4-6722-807e-8006-84a4f0c59eef"><defs><linearGradient id="fill-color-gradient-render-15-0" x1="0" y1="0.5000000000000006" x2="1" y2="0.49999999999999944" gradientTransform=""><stop offset="0.21" stop-color="#f97316" stop-opacity="1"/><stop offset="1" stop-color="#f43f5e" stop-opacity="1"/></linearGradient><pattern patternUnits="userSpaceOnUse" x="34.829963174644945" y="313.88986854587165" width="2.1859237898452193" height="0.7283158167847432" patternTransform="matrix(1.000000, 0.000000, 0.000000, 1.000000, 0.000000, 0.000000)" id="fill-0-render-15"><g><rect width="2.1859237898452193" height="0.7283158167847432" style="fill: url(&quot;#fill-color-gradient-render-15-0&quot;);"/></g></pattern></defs><g class="fills" id="fills-c471c1c4-6722-807e-8006-84a4f0c59eef"><path d="M34.830078125,313.8896484375C37.015625,314.6181640625,37.015625,314.6181640625,37.015625,314.6181640625Z" fill="url(#fill-0-render-15)"/></g></g><g id="shape-c471c1c4-6722-807e-8006-84a4f0c59ef0"><defs><linearGradient id="fill-color-gradient-render-16-0" x1="0" y1="0.5000000000000006" x2="1" y2="0.49999999999999944" gradientTransform=""><stop offset="0.21" stop-color="#f97316" stop-opacity="1"/><stop offset="1" stop-color="#f43f5e" stop-opacity="1"/></linearGradient><pattern patternUnits="userSpaceOnUse" x="241.03544068341307" y="382.3515553237103" width="1.4572825265649954" height="0.7283158167847432" patternTransform="matrix(1.000000, 0.000000, 0.000000, 1.000000, 0.000000, 0.000000)" id="fill-0-render-16"><g><rect width="1.4572825265649954" height="0.7283158167847432" style="fill: url(&quot;#fill-color-gradient-render-16-0&quot;);"/></g></pattern></defs><g class="fills" id="fills-c471c1c4-6722-807e-8006-84a4f0c59ef0"><path d="M241.035400390625,382.3515625C242.492919921875,383.07958984375,242.492919921875,383.07958984375,242.492919921875,383.07958984375Z" fill="url(#fill-0-render-16)"/></g></g><g id="shape-c471c1c4-6722-807e-8006-84a4f0c59ef1"><defs><linearGradient id="fill-color-gradient-render-17-0" x1="0" y1="0.5000000000000006" x2="1" y2="0.49999999999999944" gradientTransform=""><stop offset="0.21" stop-color="#f97316" stop-opacity="1"/><stop offset="1" stop-color="#f43f5e" stop-opacity="1"/></linearGradient><pattern patternUnits="userSpaceOnUse" x="425.38168029372537" y="185.7062847916186" width="1.4572825265631764" height="0.7283158167856527" patternTransform="matrix(1.000000, 0.000000, 0.000000, 1.000000, 0.000000, 0.000000)" id="fill-0-render-17"><g><rect width="1.4572825265631764" height="0.7283158167856527" style="fill: url(&quot;#fill-color-gradient-render-17-0&quot;);"/></g></pattern></defs><g class="fills" id="fills-c471c1c4-6722-807e-8006-84a4f0c59ef1"><path d="M425.3818359375,185.70654296875C426.839111328125,186.4345703125,426.839111328125,186.4345703125,426.839111328125,186.4345703125Z" fill="url(#fill-0-render-17)"/></g></g></g></g></g></g></g></g></g></g></g></g></g></g></svg>